# xmcd CD database file
#
# Track frame offsets:
#	187
#	4340
#	27360
#	41187
#	70120
#	85240
#	98495
#	116052
#	136620
#	153750
#
# Disc length: 2380 seconds
#
# Revision: 0
# Processed by: cddbd v1.5PL3 Copyright (c) Steve Scherf et al.
# Submitted via: CDex 1.51
#
DISCID=74094a0a
DTITLE=BOW WOW - Signal Fire
DYEAR=1977
DGENRE=Hard Rock
TTITLE0=Prelude
TTITLE1=天国行超特急
TTITLE2=Just One More Night
TTITLE3=Silver Lightning
TTITLE4=Electric Power Up
TTITLE5=Rock 'N' Roll Drive
TTITLE6=Rainbow Of Sabbath
TTITLE7=Tell Me Tell Me
TTITLE8=Signal Fire
TTITLE9=Still
EXTD=YEAR: 1977
EXTT0=
EXTT1=
EXTT2=
EXTT3=
EXTT4=
EXTT5=
EXTT6=
EXTT7=
EXTT8=
EXTT9=
PLAYORDER=
